<?xml version="1.0" encoding="UTF-8" standalone="no"?>
<!DOCTYPE svg PUBLIC "-//W3C//DTD SVG 1.1//EN"
 "http://www.w3.org/Graphics/SVG/1.1/DTD/svg11.dtd">
<!-- Generated by graphviz version 2.43.0 (0)
 -->
<!-- Title: %3 Pages: 1 -->
<svg width="1218pt" height="128pt"
 viewBox="0.00 0.00 1218.00 128.00" xmlns="http://www.w3.org/2000/svg" xmlns:xlink="http://www.w3.org/1999/xlink">
<g id="graph0" class="graph" transform="scale(1 1) rotate(0) translate(4 124)">
<title>%3</title>
<polygon fill="white" stroke="transparent" points="-4,4 -4,-124 1214,-124 1214,4 -4,4"/>
<!-- 140301538281792 -->
<g id="node1" class="node">
<title>140301538281792</title>
<polygon fill="none" stroke="black" points="1004,-31.5 1004,-67.5 1210,-67.5 1210,-31.5 1004,-31.5"/>
<text text-anchor="middle" x="1055" y="-45.8" font-family="Times,serif" font-size="14.00">data 1.8000</text>
<polyline fill="none" stroke="black" points="1106,-31.5 1106,-67.5 "/>
<text text-anchor="middle" x="1158" y="-45.8" font-family="Times,serif" font-size="14.00">grad 1.0000</text>
</g>
<!-- 140301538281792/ -->
<g id="node2" class="node">
<title>140301538281792/</title>
<ellipse fill="none" stroke="black" cx="941" cy="-49.5" rx="27" ry="18"/>
<text text-anchor="middle" x="941" y="-45.8" font-family="Times,serif" font-size="14.00">/</text>
</g>
<!-- 140301538281792/&#45;&gt;140301538281792 -->
<g id="edge1" class="edge">
<title>140301538281792/&#45;&gt;140301538281792</title>
<path fill="none" stroke="black" d="M968.35,-49.5C975.8,-49.5 984.4,-49.5 993.61,-49.5"/>
<polygon fill="black" stroke="black" points="993.8,-53 1003.8,-49.5 993.8,-46 993.8,-53"/>
</g>
<!-- 140301538281552 -->
<g id="node3" class="node">
<title>140301538281552</title>
<polygon fill="none" stroke="black" points="672,-8.5 672,-44.5 878,-44.5 878,-8.5 672,-8.5"/>
<text text-anchor="middle" x="723" y="-22.8" font-family="Times,serif" font-size="14.00">data 9.0000</text>
<polyline fill="none" stroke="black" points="774,-8.5 774,-44.5 "/>
<text text-anchor="middle" x="826" y="-22.8" font-family="Times,serif" font-size="14.00">grad 0.2000</text>
</g>
<!-- 140301538281552&#45;&gt;140301538281792/ -->
<g id="edge2" class="edge">
<title>140301538281552&#45;&gt;140301538281792/</title>
<path fill="none" stroke="black" d="M878.47,-40.87C887.65,-42.16 896.47,-43.39 904.42,-44.51"/>
<polygon fill="black" stroke="black" points="903.94,-47.98 914.33,-45.9 904.91,-41.04 903.94,-47.98"/>
</g>
<!-- 140301548122608 -->
<g id="node4" class="node">
<title>140301548122608</title>
<polygon fill="none" stroke="black" points="336,-55.5 336,-91.5 546,-91.5 546,-55.5 336,-55.5"/>
<text text-anchor="middle" x="387" y="-69.8" font-family="Times,serif" font-size="14.00">data 5.0000</text>
<polyline fill="none" stroke="black" points="438,-55.5 438,-91.5 "/>
<text text-anchor="middle" x="492" y="-69.8" font-family="Times,serif" font-size="14.00">grad &#45;0.1600</text>
</g>
<!-- 140301548122608&#45;&gt;140301538281792/ -->
<g id="edge3" class="edge">
<title>140301548122608&#45;&gt;140301538281792/</title>
<path fill="none" stroke="black" d="M546.42,-69.26C634.76,-65.53 764.7,-59.75 878,-53.5 886.42,-53.04 895.48,-52.48 904.01,-51.94"/>
<polygon fill="black" stroke="black" points="904.31,-55.42 914.06,-51.28 903.86,-48.44 904.31,-55.42"/>
</g>
<!-- 140301538281552+ -->
<g id="node5" class="node">
<title>140301538281552+</title>
<ellipse fill="none" stroke="black" cx="609" cy="-26.5" rx="27" ry="18"/>
<text text-anchor="middle" x="609" y="-22.8" font-family="Times,serif" font-size="14.00">+</text>
</g>
<!-- 140301548122608&#45;&gt;140301538281552+ -->
<g id="edge5" class="edge">
<title>140301548122608&#45;&gt;140301538281552+</title>
<path fill="none" stroke="black" d="M510.34,-55.46C522.25,-52.21 534.5,-48.81 546,-45.5 555.3,-42.83 565.34,-39.81 574.57,-36.97"/>
<polygon fill="black" stroke="black" points="575.69,-40.29 584.21,-34 573.62,-33.6 575.69,-40.29"/>
</g>
<!-- 140301538281552+&#45;&gt;140301538281552 -->
<g id="edge4" class="edge">
<title>140301538281552+&#45;&gt;140301538281552</title>
<path fill="none" stroke="black" d="M636.35,-26.5C643.8,-26.5 652.4,-26.5 661.61,-26.5"/>
<polygon fill="black" stroke="black" points="661.8,-30 671.8,-26.5 661.8,-23 661.8,-30"/>
</g>
<!-- 140301538281168 -->
<g id="node6" class="node">
<title>140301538281168</title>
<polygon fill="none" stroke="black" points="338,-0.5 338,-36.5 544,-36.5 544,-0.5 338,-0.5"/>
<text text-anchor="middle" x="389" y="-14.8" font-family="Times,serif" font-size="14.00">data 4.0000</text>
<polyline fill="none" stroke="black" points="440,-0.5 440,-36.5 "/>
<text text-anchor="middle" x="492" y="-14.8" font-family="Times,serif" font-size="14.00">grad 0.2000</text>
</g>
<!-- 140301538281168&#45;&gt;140301538281552+ -->
<g id="edge6" class="edge">
<title>140301538281168&#45;&gt;140301538281552+</title>
<path fill="none" stroke="black" d="M544.29,-23.43C554.05,-23.9 563.43,-24.35 571.86,-24.76"/>
<polygon fill="black" stroke="black" points="571.81,-28.26 581.97,-25.25 572.15,-21.27 571.81,-28.26"/>
</g>
<!-- 140301548122608+ -->
<g id="node7" class="node">
<title>140301548122608+</title>
<ellipse fill="none" stroke="black" cx="273" cy="-73.5" rx="27" ry="18"/>
<text text-anchor="middle" x="273" y="-69.8" font-family="Times,serif" font-size="14.00">+</text>
</g>
<!-- 140301548122608+&#45;&gt;140301548122608 -->
<g id="edge7" class="edge">
<title>140301548122608+&#45;&gt;140301548122608</title>
<path fill="none" stroke="black" d="M300.3,-73.5C307.76,-73.5 316.38,-73.5 325.6,-73.5"/>
<polygon fill="black" stroke="black" points="325.83,-77 335.83,-73.5 325.83,-70 325.83,-77"/>
</g>
<!-- 140305221396816 -->
<g id="node8" class="node">
<title>140305221396816</title>
<polygon fill="none" stroke="black" points="0,-83.5 0,-119.5 210,-119.5 210,-83.5 0,-83.5"/>
<text text-anchor="middle" x="51" y="-97.8" font-family="Times,serif" font-size="14.00">data 2.0000</text>
<polyline fill="none" stroke="black" points="102,-83.5 102,-119.5 "/>
<text text-anchor="middle" x="156" y="-97.8" font-family="Times,serif" font-size="14.00">grad &#45;0.1600</text>
</g>
<!-- 140305221396816&#45;&gt;140301548122608+ -->
<g id="edge8" class="edge">
<title>140305221396816&#45;&gt;140301548122608+</title>
<path fill="none" stroke="black" d="M210.19,-83.93C219.52,-82.35 228.47,-80.84 236.51,-79.49"/>
<polygon fill="black" stroke="black" points="237.26,-82.91 246.53,-77.8 236.09,-76.01 237.26,-82.91"/>
</g>
<!-- 140305231652192 -->
<g id="node9" class="node">
<title>140305231652192</title>
<polygon fill="none" stroke="black" points="0,-28.5 0,-64.5 210,-64.5 210,-28.5 0,-28.5"/>
<text text-anchor="middle" x="51" y="-42.8" font-family="Times,serif" font-size="14.00">data 3.0000</text>
<polyline fill="none" stroke="black" points="102,-28.5 102,-64.5 "/>
<text text-anchor="middle" x="156" y="-42.8" font-family="Times,serif" font-size="14.00">grad &#45;0.1600</text>
</g>
<!-- 140305231652192&#45;&gt;140301548122608+ -->
<g id="edge9" class="edge">
<title>140305231652192&#45;&gt;140301548122608+</title>
<path fill="none" stroke="black" d="M210.19,-63.45C219.52,-64.96 228.47,-66.42 236.51,-67.73"/>
<polygon fill="black" stroke="black" points="236.1,-71.21 246.53,-69.36 237.23,-64.3 236.1,-71.21"/>
</g>
</g>
</svg>
